<svg xmlns:xlink="http://www.w3.org/1999/xlink" width="75ex" height="29.676ex" style="font-size: 15px; vertical-align: -14.338ex; max-width: 450;" viewBox="0 -6603.8 32291.5 12777.1" role="img" focusable="false" xmlns="http://www.w3.org/2000/svg">
<defs>
<path stroke-width="1" id="E1-MJMAIN-28" d="M94 250Q94 319 104 381T127 488T164 576T202 643T244 695T277 729T302 750H315H319Q333 750 333 741Q333 738 316 720T275 667T226 581T184 443T167 250T184 58T225 -81T274 -167T316 -220T333 -241Q333 -250 318 -250H315H302L274 -226Q180 -141 137 -14T94 250Z"></path>
<path stroke-width="1" id="E1-MJMAIN-35" d="M164 157Q164 133 148 117T109 101H102Q148 22 224 22Q294 22 326 82Q345 115 345 210Q345 313 318 349Q292 382 260 382H254Q176 382 136 314Q132 307 129 306T114 304Q97 304 95 310Q93 314 93 485V614Q93 664 98 664Q100 666 102 666Q103 666 123 658T178 642T253 634Q324 634 389 662Q397 666 402 666Q410 666 410 648V635Q328 538 205 538Q174 538 149 544L139 546V374Q158 388 169 396T205 412T256 420Q337 420 393 355T449 201Q449 109 385 44T229 -22Q148 -22 99 32T50 154Q50 178 61 192T84 210T107 214Q132 214 148 197T164 157Z"></path>
<path stroke-width="1" id="E1-MJMAIN-2E" d="M78 60Q78 84 95 102T138 120Q162 120 180 104T199 61Q199 36 182 18T139 0T96 17T78 60Z"></path>
<path stroke-width="1" id="E1-MJMAIN-33" d="M127 463Q100 463 85 480T69 524Q69 579 117 622T233 665Q268 665 277 664Q351 652 390 611T430 522Q430 470 396 421T302 350L299 348Q299 347 308 345T337 336T375 315Q457 262 457 175Q457 96 395 37T238 -22Q158 -22 100 21T42 130Q42 158 60 175T105 193Q133 193 151 175T169 130Q169 119 166 110T159 94T148 82T136 74T126 70T118 67L114 66Q165 21 238 21Q293 21 321 74Q338 107 338 175V195Q338 290 274 322Q259 328 213 329L171 330L168 332Q166 335 166 348Q166 366 174 366Q202 366 232 371Q266 376 294 413T322 525V533Q322 590 287 612Q265 626 240 626Q208 626 181 615T143 592T132 580H135Q138 579 143 578T153 573T165 566T175 555T183 540T186 520Q186 498 172 481T127 463Z"></path>
<path stroke-width="1" id="E1-MJMAIN-29" d="M60 749L64 750Q69 750 74 750H86L114 726Q208 641 251 514T294 250Q294 182 284 119T261 12T224 -76T186 -143T145 -194T113 -227T90 -246Q87 -249 86 -250H74Q66 -250 63 -250T58 -247T55 -238Q56 -237 66 -225Q221 -64 221 250T66 725Q56 737 55 738Q55 746 60 749Z"></path>
<path stroke-width="1" id="E1-MJMAIN-2026" d="M78 60Q78 84 95 102T138 120Q162 120 180 104T199 61Q199 36 182 18T139 0T96 17T78 60ZM525 60Q525 84 542 102T585 120Q609 120 627 104T646 61Q646 36 629 18T586 0T543 17T525 60ZM972 60Q972 84 989 102T1032 120Q1056 120 1074 104T1093 61Q1093 36 1076 18T1033 0T990 17T972 60Z"></path>
<path stroke-width="1" id="E1-MJMAIN-2212" d="M84 237T84 250T98 270H679Q694 262 694 250T679 230H98Q84 237 84 250Z"></path>
<path stroke-width="1" id="E1-MJMAIN-2192" d="M56 237T56 250T70 270H835Q719 357 692 493Q692 494 692 496T691 499Q691 511 708 511H711Q720 511 723 510T729 506T732 497T735 481T743 456Q765 389 816 336T935 261Q944 258 944 250Q944 244 939 241T915 231T877 212Q836 186 806 152T761 85T740 35T732 4Q730 -6 727 -8T711 -11Q691 -11 691 0Q691 7 696 25Q728 151 835 230H70Q56 237 56 250Z"></path>
<path stroke-width="1" id="E1-MJMATHI-3BC" d="M58 -216Q44 -216 34 -208T23 -186Q23 -176 96 116T173 414Q186 442 219 442Q231 441 239 435T249 423T251 413Q251 401 220 279T187 142Q185 131 185 107V99Q185 26 252 26Q261 26 270 27T287 31T302 38T315 45T327 55T338 65T348 77T356 88T365 100L372 110L408 253Q444 395 448 404Q461 431 491 431Q504 431 512 424T523 412T525 402L449 84Q448 79 448 68Q448 43 455 35T476 26Q485 27 496 35Q517 55 537 131Q543 151 547 152Q549 153 557 153H561Q580 153 580 144Q580 138 575 117T555 63T523 13Q510 0 491 -8Q483 -10 467 -10Q446 -10 429 -4T402 11T385 29T376 44T374 51L368 45Q362 39 350 30T324 12T288 -4T246 -11Q199 -11 153 12L129 -85Q108 -167 104 -180T92 -202Q76 -216 58 -216Z"></path>
<path stroke-width="1" id="E1-MJMAIN-2191" d="M27 414Q17 414 17 433Q17 437 17 439T17 444T19 447T20 450T22 452T26 453T30 454T36 456Q80 467 120 494T180 549Q227 607 238 678Q240 694 251 694Q259 694 261 684Q261 677 265 659T284 608T320 549Q340 525 363 507T405 479T440 463T467 455T479 451Q483 447 483 433Q483 413 472 413Q467 413 458 416Q342 448 277 545L270 555V-179Q262 -193 252 -193H250H248Q236 -193 230 -179V555L223 545Q192 499 146 467T70 424T27 414Z"></path>
<path stroke-width="1" id="E1-MJMAIN-3D" d="M56 347Q56 360 70 367H707Q722 359 722 347Q722 336 708 328L390 327H72Q56 332 56 347ZM56 153Q56 168 72 173H708Q722 163 722 153Q722 140 707 133H70Q56 140 56 153Z"></path>
<path stroke-width="1" id="E1-MJMAIN-30" d="M96 585Q152 666 249 666Q297 666 345 640T423 548Q460 465 460 320Q460 165 417 83Q397 41 362 16T301 -15T250 -22Q224 -22 198 -16T137 16T82 83Q39 165 39 320Q39 494 96 585ZM321 597Q291 629 250 629Q208 629 178 597Q153 571 145 525T137 333Q137 175 145 125T181 46Q209 16 250 16Q290 16 318 46Q347 76 354 130T362 333Q362 478 354 524T321 597Z"></path>
<path stroke-width="1" id="E1-MJMAIN-32" d="M109 429Q82 429 66 447T50 491Q50 562 103 614T235 666Q326 666 387 610T449 465Q449 422 429 383T381 315T301 241Q265 210 201 149L142 93L218 92Q375 92 385 97Q392 99 409 186V189H449V186Q448 183 436 95T421 3V0H50V19V31Q50 38 56 46T86 81Q115 113 136 137Q145 147 170 174T204 211T233 244T261 278T284 308T305 340T320 369T333 401T340 431T343 464Q343 527 309 573T212 619Q179 619 154 602T119 569T109 550Q109 549 114 549Q132 549 151 535T170 489Q170 464 154 447T109 429Z"></path>
<path stroke-width="1" id="E1-MJMAIN-31" d="M213 578L200 573Q186 568 160 563T102 556H83V602H102Q149 604 189 617T245 641T273 663Q275 666 285 666Q294 666 302 660V361L303 61Q310 54 315 52T339 48T401 46H427V0H416Q395 3 257 3Q121 3 100 0H88V46H114Q136 46 152 46T177 47T193 50T201 52T207 57T213 61V578Z"></path>
<path stroke-width="1" id="E1-MJMAIN-34" d="M462 0Q444 3 333 3Q217 3 199 0H190V46H221Q241 46 248 46T265 48T279 53T286 61Q287 63 287 115V165H28V211L179 442Q332 674 334 675Q336 677 355 677H373L379 671V211H471V165H379V114Q379 73 379 66T385 54Q393 47 442 46H471V0H462ZM293 211V545L74 212L183 211H293Z"></path>
<path stroke-width="1" id="E1-MJMAIN-36" d="M42 313Q42 476 123 571T303 666Q372 666 402 630T432 550Q432 525 418 510T379 495Q356 495 341 509T326 548Q326 592 373 601Q351 623 311 626Q240 626 194 566Q147 500 147 364L148 360Q153 366 156 373Q197 433 263 433H267Q313 433 348 414Q372 400 396 374T435 317Q456 268 456 210V192Q456 169 451 149Q440 90 387 34T253 -22Q225 -22 199 -14T143 16T92 75T56 172T42 313ZM257 397Q227 397 205 380T171 335T154 278T148 216Q148 133 160 97T198 39Q222 21 251 21Q302 21 329 59Q342 77 347 104T352 209Q352 289 347 316T329 361Q302 397 257 397Z"></path>
</defs>
<g stroke="currentColor" fill="currentColor" stroke-width="0" transform="matrix(1 0 0 -1 0 0)">
<g transform="translate(29454,0)">
<g id="mjx-eqn-5.3.5">
 <use xlink:href="#E1-MJMAIN-28"></use>
 <use xlink:href="#E1-MJMAIN-35" x="389" y="0"></use>
 <use xlink:href="#E1-MJMAIN-2E" x="890" y="0"></use>
 <use xlink:href="#E1-MJMAIN-33" x="1168" y="0"></use>
 <use xlink:href="#E1-MJMAIN-2E" x="1669" y="0"></use>
 <use xlink:href="#E1-MJMAIN-35" x="1947" y="0"></use>
 <use xlink:href="#E1-MJMAIN-29" x="2448" y="0"></use>
</g>
</g>
<g transform="translate(11823,0)">
<g transform="translate(-11,0)">
<g transform="translate(167,0)">
<g transform="translate(-11,0)">
 <use xlink:href="#E1-MJMAIN-2026" x="7214" y="5728"></use>
<g transform="translate(0,4328)">
 <use xlink:href="#E1-MJMAIN-2212" x="0" y="0"></use>
 <use xlink:href="#E1-MJMAIN-33" x="778" y="0"></use>
 <use xlink:href="#E1-MJMAIN-2192" x="1556" y="0"></use>
 <use xlink:href="#E1-MJMATHI-3BC" x="2835" y="0"></use>
 <use xlink:href="#E1-MJMAIN-2191" x="3716" y="0"></use>
 <use xlink:href="#E1-MJMAIN-28" x="4494" y="0"></use>
 <use xlink:href="#E1-MJMAIN-2212" x="4884" y="0"></use>
 <use xlink:href="#E1-MJMAIN-33" x="5662" y="0"></use>
 <use xlink:href="#E1-MJMAIN-29" x="6163" y="0"></use>
 <use xlink:href="#E1-MJMAIN-3D" x="6830" y="0"></use>
 <use xlink:href="#E1-MJMAIN-30" x="7886" y="0"></use>
</g>
<g transform="translate(0,2877)">
 <use xlink:href="#E1-MJMAIN-2212" x="0" y="0"></use>
 <use xlink:href="#E1-MJMAIN-32" x="778" y="0"></use>
 <use xlink:href="#E1-MJMAIN-2192" x="1556" y="0"></use>
 <use xlink:href="#E1-MJMATHI-3BC" x="2835" y="0"></use>
 <use xlink:href="#E1-MJMAIN-2191" x="3716" y="0"></use>
 <use xlink:href="#E1-MJMAIN-28" x="4494" y="0"></use>
 <use xlink:href="#E1-MJMAIN-2212" x="4884" y="0"></use>
 <use xlink:href="#E1-MJMAIN-32" x="5662" y="0"></use>
 <use xlink:href="#E1-MJMAIN-29" x="6163" y="0"></use>
 <use xlink:href="#E1-MJMAIN-3D" x="6830" y="0"></use>
 <use xlink:href="#E1-MJMAIN-31" x="7886" y="0"></use>
</g>
<g transform="translate(0,1426)">
 <use xlink:href="#E1-MJMAIN-2212" x="0" y="0"></use>
 <use xlink:href="#E1-MJMAIN-31" x="778" y="0"></use>
 <use xlink:href="#E1-MJMAIN-2192" x="1556" y="0"></use>
 <use xlink:href="#E1-MJMATHI-3BC" x="2835" y="0"></use>
 <use xlink:href="#E1-MJMAIN-2191" x="3716" y="0"></use>
 <use xlink:href="#E1-MJMAIN-28" x="4494" y="0"></use>
 <use xlink:href="#E1-MJMAIN-2212" x="4884" y="0"></use>
 <use xlink:href="#E1-MJMAIN-31" x="5662" y="0"></use>
 <use xlink:href="#E1-MJMAIN-29" x="6163" y="0"></use>
 <use xlink:href="#E1-MJMAIN-3D" x="6830" y="0"></use>
 <use xlink:href="#E1-MJMAIN-32" x="7886" y="0"></use>
</g>
<g transform="translate(1557,-25)">
 <use xlink:href="#E1-MJMAIN-30" x="0" y="0"></use>
 <use xlink:href="#E1-MJMAIN-2192" x="778" y="0"></use>
 <use xlink:href="#E1-MJMATHI-3BC" x="2056" y="0"></use>
 <use xlink:href="#E1-MJMAIN-2191" x="2937" y="0"></use>
 <use xlink:href="#E1-MJMAIN-28" x="3716" y="0"></use>
 <use xlink:href="#E1-MJMAIN-30" x="4105" y="0"></use>
 <use xlink:href="#E1-MJMAIN-29" x="4606" y="0"></use>
 <use xlink:href="#E1-MJMAIN-3D" x="5273" y="0"></use>
 <use xlink:href="#E1-MJMAIN-33" x="6329" y="0"></use>
</g>
<g transform="translate(1557,-1476)">
 <use xlink:href="#E1-MJMAIN-31" x="0" y="0"></use>
 <use xlink:href="#E1-MJMAIN-2192" x="778" y="0"></use>
 <use xlink:href="#E1-MJMATHI-3BC" x="2056" y="0"></use>
 <use xlink:href="#E1-MJMAIN-2191" x="2937" y="0"></use>
 <use xlink:href="#E1-MJMAIN-28" x="3716" y="0"></use>
 <use xlink:href="#E1-MJMAIN-31" x="4105" y="0"></use>
 <use xlink:href="#E1-MJMAIN-29" x="4606" y="0"></use>
 <use xlink:href="#E1-MJMAIN-3D" x="5273" y="0"></use>
 <use xlink:href="#E1-MJMAIN-34" x="6329" y="0"></use>
</g>
<g transform="translate(1557,-2927)">
 <use xlink:href="#E1-MJMAIN-32" x="0" y="0"></use>
 <use xlink:href="#E1-MJMAIN-2192" x="778" y="0"></use>
 <use xlink:href="#E1-MJMATHI-3BC" x="2056" y="0"></use>
 <use xlink:href="#E1-MJMAIN-2191" x="2937" y="0"></use>
 <use xlink:href="#E1-MJMAIN-28" x="3716" y="0"></use>
 <use xlink:href="#E1-MJMAIN-32" x="4105" y="0"></use>
 <use xlink:href="#E1-MJMAIN-29" x="4606" y="0"></use>
 <use xlink:href="#E1-MJMAIN-3D" x="5273" y="0"></use>
 <use xlink:href="#E1-MJMAIN-35" x="6329" y="0"></use>
</g>
<g transform="translate(1557,-4378)">
 <use xlink:href="#E1-MJMAIN-33" x="0" y="0"></use>
 <use xlink:href="#E1-MJMAIN-2192" x="778" y="0"></use>
 <use xlink:href="#E1-MJMATHI-3BC" x="2056" y="0"></use>
 <use xlink:href="#E1-MJMAIN-2191" x="2937" y="0"></use>
 <use xlink:href="#E1-MJMAIN-28" x="3716" y="0"></use>
 <use xlink:href="#E1-MJMAIN-33" x="4105" y="0"></use>
 <use xlink:href="#E1-MJMAIN-29" x="4606" y="0"></use>
 <use xlink:href="#E1-MJMAIN-3D" x="5273" y="0"></use>
 <use xlink:href="#E1-MJMAIN-36" x="6329" y="0"></use>
</g>
 <use xlink:href="#E1-MJMAIN-2026" x="7214" y="-5829"></use>
</g>
</g>
 <use xlink:href="#E1-MJMAIN-2E" x="8710" y="0"></use>
</g>
</g>
</g>
</svg>